<svg xmlns="http://www.w3.org/2000/svg" xmlns:xlink="http://www.w3.org/1999/xlink" width="347" zoomAndPan="magnify" viewBox="0 0 260.25 44.249999" height="59" preserveAspectRatio="xMidYMid meet" version="1.0"><defs><g/><clipPath id="adffca0bdc"><path d="M 1.800781 3 L 252 3 L 252 40 L 1.800781 40 Z M 1.800781 3 " clip-rule="nonzero"/></clipPath><clipPath id="f632df7c16"><path d="M 0.800781 5.769531 L 30 5.769531 L 30 34.113281 L 0.800781 34.113281 Z M 0.800781 5.769531 " clip-rule="nonzero"/></clipPath><clipPath id="8641d28d1e"><rect x="0" width="251" y="0" height="37"/></clipPath></defs><g clip-path="url(#adffca0bdc)"><g transform="matrix(1, 0, 0, 1, 1, 3)"><g clip-path="url(#8641d28d1e)"><g clip-path="url(#f632df7c16)"><path fill="#6a47ed" d="M 1.949219 22.714844 C 3.484375 24.246094 5.972656 24.246094 7.507812 22.714844 C 9.039062 21.183594 9.039062 18.699219 7.507812 17.167969 C 5.972656 15.636719 3.484375 15.636719 1.949219 17.167969 C 0.417969 18.699219 0.417969 21.183594 1.949219 22.714844 Z M 17.769531 27.414062 C 16.234375 25.882812 13.746094 25.882812 12.214844 27.414062 C 10.679688 28.945312 10.679688 31.429688 12.214844 32.960938 C 13.746094 34.496094 16.234375 34.496094 17.769531 32.960938 C 19.300781 31.429688 19.300781 28.945312 17.769531 27.414062 Z M 22.476562 17.167969 C 20.941406 18.699219 20.941406 21.183594 22.476562 22.714844 C 24.007812 24.246094 26.496094 24.246094 28.03125 22.714844 C 29.566406 21.183594 29.566406 18.699219 28.03125 17.167969 C 26.496094 15.636719 24.007812 15.636719 22.476562 17.167969 Z M 12.214844 6.921875 C 10.679688 8.453125 10.679688 10.9375 12.214844 12.46875 C 13.746094 14 16.234375 14 17.769531 12.46875 C 19.296875 10.941406 19.300781 8.464844 17.78125 6.929688 C 17.777344 6.925781 17.773438 6.921875 17.769531 6.917969 C 16.234375 5.386719 13.746094 5.386719 12.214844 6.921875 Z M 7.507812 6.921875 C 7.011719 6.425781 6.417969 6.089844 5.789062 5.917969 C 5.78125 5.914062 5.769531 5.910156 5.761719 5.910156 C 5.4375 5.820312 5.097656 5.773438 4.75 5.773438 L 4.738281 5.773438 C 2.578125 5.773438 0.824219 7.527344 0.816406 9.6875 C 0.816406 9.691406 0.816406 9.695312 0.816406 9.695312 C 0.816406 11.5 2.035156 13.023438 3.695312 13.480469 C 4.027344 13.570312 4.378906 13.621094 4.738281 13.621094 C 5.449219 13.621094 6.097656 13.679688 6.691406 13.804688 C 8.992188 14.28125 10.398438 15.683594 10.878906 17.980469 C 10.984375 18.5 11.046875 19.066406 11.0625 19.675781 C 11.054688 19.757812 11.054688 19.84375 11.054688 19.933594 C 11.054688 20.644531 10.988281 21.300781 10.867188 21.898438 C 10.382812 24.1875 8.980469 25.589844 6.6875 26.070312 C 6.089844 26.195312 5.433594 26.257812 4.71875 26.257812 C 3.699219 26.257812 2.765625 26.652344 2.066406 27.292969 C 2.03125 27.335938 1.992188 27.375 1.949219 27.414062 C 0.484375 28.882812 0.421875 31.21875 1.761719 32.761719 C 1.824219 32.828125 1.886719 32.898438 1.949219 32.960938 C 2.59375 33.597656 3.449219 34.015625 4.40625 34.089844 L 4.878906 34.097656 C 6.972656 34.015625 8.648438 32.292969 8.648438 30.179688 C 8.648438 30.101562 8.648438 30.023438 8.648438 29.949219 C 8.660156 29.328125 8.722656 28.753906 8.832031 28.226562 C 9.3125 25.925781 10.71875 24.519531 13.027344 24.039062 C 13.542969 23.929688 14.109375 23.871094 14.71875 23.859375 C 14.707031 23.855469 14.691406 23.855469 14.679688 23.855469 L 14.773438 23.855469 C 14.839844 23.855469 14.90625 23.855469 14.972656 23.855469 L 14.777344 23.855469 L 14.988281 23.859375 L 14.992188 23.859375 L 15.246094 23.855469 L 15.300781 23.855469 C 15.25 23.859375 15.203125 23.863281 15.152344 23.863281 L 15.097656 23.863281 C 15.0625 23.863281 15.03125 23.863281 15 23.863281 C 15.707031 23.863281 16.359375 23.925781 16.953125 24.050781 C 19.253906 24.527344 20.65625 25.933594 21.136719 28.230469 C 21.261719 28.824219 21.324219 29.476562 21.324219 30.1875 C 21.324219 31.238281 21.734375 32.195312 22.410156 32.898438 C 22.433594 32.917969 22.453125 32.941406 22.476562 32.960938 C 23.199219 33.6875 24.136719 34.066406 25.085938 34.109375 C 25.089844 34.109375 25.089844 34.109375 25.089844 34.109375 L 25.558594 34.101562 C 26.511719 34.023438 27.371094 33.609375 28.007812 32.972656 C 28.75 32.234375 29.167969 31.238281 29.167969 30.1875 C 29.167969 28.058594 27.445312 26.308594 25.324219 26.265625 C 25.296875 26.265625 25.273438 26.265625 25.246094 26.265625 C 24.535156 26.265625 23.882812 26.203125 23.292969 26.082031 C 20.992188 25.601562 19.585938 24.199219 19.105469 21.898438 C 18.988281 21.335938 18.925781 20.714844 18.921875 20.042969 C 18.921875 20.011719 18.921875 19.976562 18.921875 19.945312 C 18.921875 19.230469 18.984375 18.578125 19.109375 17.984375 C 19.589844 15.6875 20.996094 14.285156 23.292969 13.804688 C 23.886719 13.683594 24.542969 13.621094 25.257812 13.621094 C 26.296875 13.621094 27.242188 13.214844 27.945312 12.558594 C 27.972656 12.527344 28 12.496094 28.03125 12.46875 C 29.566406 10.9375 29.566406 8.453125 28.03125 6.921875 C 28.027344 6.917969 28.023438 6.914062 28.023438 6.910156 C 28.015625 6.902344 28.007812 6.894531 28 6.886719 C 27.289062 6.199219 26.324219 5.773438 25.257812 5.773438 L 25.246094 5.773438 C 23.082031 5.777344 21.328125 7.535156 21.328125 9.695312 C 21.328125 9.742188 21.328125 9.785156 21.328125 9.828125 C 21.320312 10.488281 21.257812 11.097656 21.140625 11.652344 C 20.660156 13.953125 19.253906 15.355469 16.953125 15.835938 C 16.433594 15.945312 15.867188 16.003906 15.257812 16.019531 C 15.214844 16.019531 15.171875 16.019531 15.128906 16.019531 C 15.125 16.019531 15.121094 16.019531 15.121094 16.019531 C 15.082031 16.019531 15.046875 16.019531 15.007812 16.019531 C 15.003906 16.019531 15 16.019531 15 16.019531 C 14.972656 16.019531 14.945312 16.019531 14.921875 16.019531 C 14.902344 16.019531 14.882812 16.019531 14.863281 16.019531 C 14.8125 16.019531 14.761719 16.019531 14.710938 16.019531 C 14.105469 16.003906 13.542969 15.941406 13.027344 15.835938 C 10.730469 15.355469 9.328125 13.949219 8.847656 11.652344 C 8.722656 11.058594 8.664062 10.40625 8.664062 9.695312 C 8.664062 8.648438 8.25 7.691406 7.578125 6.988281 C 7.554688 6.964844 7.53125 6.945312 7.507812 6.921875 Z M 7.507812 6.921875 " fill-opacity="1" fill-rule="evenodd"/></g><g fill="#17012c" fill-opacity="1"><g transform="translate(37.27395, 28.568983)"><g><path d="M 6.46875 0.265625 C 4.90625 0.265625 3.601562 -0.03125 2.5625 -0.625 C 1.53125 -1.21875 0.773438 -2.015625 0.296875 -3.015625 L 2.359375 -5.515625 L 2.671875 -5.515625 C 3.015625 -4.710938 3.492188 -4.078125 4.109375 -3.609375 C 4.734375 -3.140625 5.453125 -2.90625 6.265625 -2.90625 C 7.179688 -2.90625 7.863281 -3.171875 8.3125 -3.703125 C 8.757812 -4.242188 8.984375 -5.113281 8.984375 -6.3125 L 8.984375 -18.46875 L 12.625 -18.46875 L 12.625 -6.25 C 12.625 -4.019531 12.113281 -2.375 11.09375 -1.3125 C 10.082031 -0.257812 8.539062 0.265625 6.46875 0.265625 Z M 6.46875 0.265625 "/></g></g></g><g fill="#17012c" fill-opacity="1"><g transform="translate(52.180008, 28.568983)"><g><path d="M 3.75 -15.609375 C 3.125 -15.609375 2.613281 -15.796875 2.21875 -16.171875 C 1.820312 -16.554688 1.625 -17.050781 1.625 -17.65625 C 1.625 -18.257812 1.820312 -18.75 2.21875 -19.125 C 2.613281 -19.507812 3.125 -19.703125 3.75 -19.703125 C 4.175781 -19.703125 4.550781 -19.613281 4.875 -19.4375 C 5.207031 -19.257812 5.460938 -19.015625 5.640625 -18.703125 C 5.816406 -18.398438 5.90625 -18.050781 5.90625 -17.65625 C 5.90625 -17.257812 5.816406 -16.90625 5.640625 -16.59375 C 5.460938 -16.289062 5.207031 -16.050781 4.875 -15.875 C 4.550781 -15.695312 4.175781 -15.609375 3.75 -15.609375 Z M 2.015625 0 L 2.015625 -13.9375 L 5.515625 -13.9375 L 5.515625 0 Z M 2.015625 0 "/></g></g></g><g fill="#17012c" fill-opacity="1"><g transform="translate(59.683567, 28.568983)"><g><path d="M 7.234375 5.90625 C 4.929688 5.90625 3.234375 5.566406 2.140625 4.890625 C 1.046875 4.222656 0.5 3.285156 0.5 2.078125 C 0.5 1.347656 0.726562 0.75 1.1875 0.28125 C 1.65625 -0.183594 2.328125 -0.5 3.203125 -0.65625 L 3.203125 -0.921875 C 2.734375 -1.210938 2.394531 -1.53125 2.1875 -1.875 C 1.976562 -2.226562 1.875 -2.632812 1.875 -3.09375 C 1.875 -4.21875 2.601562 -4.972656 4.0625 -5.359375 L 4.0625 -5.625 C 3.3125 -6.050781 2.75 -6.582031 2.375 -7.21875 C 2 -7.851562 1.8125 -8.625 1.8125 -9.53125 C 1.8125 -10.457031 2.019531 -11.269531 2.4375 -11.96875 C 2.863281 -12.675781 3.488281 -13.222656 4.3125 -13.609375 C 5.132812 -14.003906 6.117188 -14.203125 7.265625 -14.203125 C 8.429688 -14.203125 9.359375 -14 10.046875 -13.59375 C 10.472656 -14.21875 10.722656 -14.9375 10.796875 -15.75 L 11.0625 -15.921875 L 13.5625 -15.296875 C 13.488281 -14.628906 13.296875 -14.070312 12.984375 -13.625 C 12.671875 -13.175781 12.1875 -12.773438 11.53125 -12.421875 L 11.53125 -12.140625 C 12.3125 -11.453125 12.703125 -10.488281 12.703125 -9.25 C 12.703125 -8.382812 12.488281 -7.609375 12.0625 -6.921875 C 11.632812 -6.242188 11.007812 -5.707031 10.1875 -5.3125 C 9.363281 -4.914062 8.390625 -4.71875 7.265625 -4.71875 L 6.734375 -4.734375 C 6.398438 -4.753906 6.164062 -4.765625 6.03125 -4.765625 C 5.707031 -4.765625 5.453125 -4.675781 5.265625 -4.5 C 5.085938 -4.332031 5 -4.113281 5 -3.84375 C 5 -3.550781 5.113281 -3.320312 5.34375 -3.15625 C 5.582031 -2.988281 5.929688 -2.894531 6.390625 -2.875 L 9.515625 -2.765625 C 12.597656 -2.671875 14.140625 -1.339844 14.140625 1.21875 C 14.140625 2.113281 13.910156 2.910156 13.453125 3.609375 C 12.992188 4.316406 12.25 4.875 11.21875 5.28125 C 10.1875 5.695312 8.859375 5.90625 7.234375 5.90625 Z M 7.265625 -7.171875 C 7.941406 -7.171875 8.46875 -7.367188 8.84375 -7.765625 C 9.21875 -8.160156 9.40625 -8.726562 9.40625 -9.46875 C 9.40625 -10.195312 9.21875 -10.753906 8.84375 -11.140625 C 8.46875 -11.535156 7.941406 -11.734375 7.265625 -11.734375 C 6.578125 -11.734375 6.046875 -11.535156 5.671875 -11.140625 C 5.304688 -10.753906 5.125 -10.195312 5.125 -9.46875 C 5.125 -8.71875 5.304688 -8.144531 5.671875 -7.75 C 6.046875 -7.363281 6.578125 -7.171875 7.265625 -7.171875 Z M 7.234375 3.375 C 8.421875 3.375 9.285156 3.203125 9.828125 2.859375 C 10.378906 2.523438 10.65625 2.085938 10.65625 1.546875 C 10.65625 1.109375 10.515625 0.785156 10.234375 0.578125 C 9.953125 0.378906 9.507812 0.269531 8.90625 0.25 L 6.15625 0.125 C 6.0625 0.125 5.972656 0.117188 5.890625 0.109375 C 5.816406 0.0976562 5.738281 0.09375 5.65625 0.09375 C 5.070312 0.09375 4.625 0.21875 4.3125 0.46875 C 4.007812 0.726562 3.859375 1.082031 3.859375 1.53125 C 3.859375 2.113281 4.140625 2.566406 4.703125 2.890625 C 5.265625 3.210938 6.109375 3.375 7.234375 3.375 Z M 7.234375 3.375 "/></g></g></g><g fill="#17012c" fill-opacity="1"><g transform="translate(74.172763, 28.568983)"><g><path d="M 7.234375 5.90625 C 4.929688 5.90625 3.234375 5.566406 2.140625 4.890625 C 1.046875 4.222656 0.5 3.285156 0.5 2.078125 C 0.5 1.347656 0.726562 0.75 1.1875 0.28125 C 1.65625 -0.183594 2.328125 -0.5 3.203125 -0.65625 L 3.203125 -0.921875 C 2.734375 -1.210938 2.394531 -1.53125 2.1875 -1.875 C 1.976562 -2.226562 1.875 -2.632812 1.875 -3.09375 C 1.875 -4.21875 2.601562 -4.972656 4.0625 -5.359375 L 4.0625 -5.625 C 3.3125 -6.050781 2.75 -6.582031 2.375 -7.21875 C 2 -7.851562 1.8125 -8.625 1.8125 -9.53125 C 1.8125 -10.457031 2.019531 -11.269531 2.4375 -11.96875 C 2.863281 -12.675781 3.488281 -13.222656 4.3125 -13.609375 C 5.132812 -14.003906 6.117188 -14.203125 7.265625 -14.203125 C 8.429688 -14.203125 9.359375 -14 10.046875 -13.59375 C 10.472656 -14.21875 10.722656 -14.9375 10.796875 -15.75 L 11.0625 -15.921875 L 13.5625 -15.296875 C 13.488281 -14.628906 13.296875 -14.070312 12.984375 -13.625 C 12.671875 -13.175781 12.1875 -12.773438 11.53125 -12.421875 L 11.53125 -12.140625 C 12.3125 -11.453125 12.703125 -10.488281 12.703125 -9.25 C 12.703125 -8.382812 12.488281 -7.609375 12.0625 -6.921875 C 11.632812 -6.242188 11.007812 -5.707031 10.1875 -5.3125 C 9.363281 -4.914062 8.390625 -4.71875 7.265625 -4.71875 L 6.734375 -4.734375 C 6.398438 -4.753906 6.164062 -4.765625 6.03125 -4.765625 C 5.707031 -4.765625 5.453125 -4.675781 5.265625 -4.5 C 5.085938 -4.332031 5 -4.113281 5 -3.84375 C 5 -3.550781 5.113281 -3.320312 5.34375 -3.15625 C 5.582031 -2.988281 5.929688 -2.894531 6.390625 -2.875 L 9.515625 -2.765625 C 12.597656 -2.671875 14.140625 -1.339844 14.140625 1.21875 C 14.140625 2.113281 13.910156 2.910156 13.453125 3.609375 C 12.992188 4.316406 12.25 4.875 11.21875 5.28125 C 10.1875 5.695312 8.859375 5.90625 7.234375 5.90625 Z M 7.265625 -7.171875 C 7.941406 -7.171875 8.46875 -7.367188 8.84375 -7.765625 C 9.21875 -8.160156 9.40625 -8.726562 9.40625 -9.46875 C 9.40625 -10.195312 9.21875 -10.753906 8.84375 -11.140625 C 8.46875 -11.535156 7.941406 -11.734375 7.265625 -11.734375 C 6.578125 -11.734375 6.046875 -11.535156 5.671875 -11.140625 C 5.304688 -10.753906 5.125 -10.195312 5.125 -9.46875 C 5.125 -8.71875 5.304688 -8.144531 5.671875 -7.75 C 6.046875 -7.363281 6.578125 -7.171875 7.265625 -7.171875 Z M 7.234375 3.375 C 8.421875 3.375 9.285156 3.203125 9.828125 2.859375 C 10.378906 2.523438 10.65625 2.085938 10.65625 1.546875 C 10.65625 1.109375 10.515625 0.785156 10.234375 0.578125 C 9.953125 0.378906 9.507812 0.269531 8.90625 0.25 L 6.15625 0.125 C 6.0625 0.125 5.972656 0.117188 5.890625 0.109375 C 5.816406 0.0976562 5.738281 0.09375 5.65625 0.09375 C 5.070312 0.09375 4.625 0.21875 4.3125 0.46875 C 4.007812 0.726562 3.859375 1.082031 3.859375 1.53125 C 3.859375 2.113281 4.140625 2.566406 4.703125 2.890625 C 5.265625 3.210938 6.109375 3.375 7.234375 3.375 Z M 7.234375 3.375 "/></g></g></g><g fill="#17012c" fill-opacity="1"><g transform="translate(88.447205, 28.568983)"><g><path d="M 13.765625 -6.171875 L 4.8125 -6.171875 C 4.914062 -4.960938 5.257812 -4.082031 5.84375 -3.53125 C 6.4375 -2.976562 7.242188 -2.703125 8.265625 -2.703125 C 9.066406 -2.703125 9.710938 -2.847656 10.203125 -3.140625 C 10.703125 -3.441406 11.101562 -3.898438 11.40625 -4.515625 L 11.671875 -4.515625 L 14 -3.015625 C 13.539062 -2.035156 12.851562 -1.242188 11.9375 -0.640625 C 11.019531 -0.0351562 9.796875 0.265625 8.265625 0.265625 C 6.828125 0.265625 5.582031 -0.00390625 4.53125 -0.546875 C 3.476562 -1.097656 2.664062 -1.914062 2.09375 -3 C 1.53125 -4.082031 1.25 -5.40625 1.25 -6.96875 C 1.25 -8.550781 1.546875 -9.882812 2.140625 -10.96875 C 2.742188 -12.050781 3.554688 -12.859375 4.578125 -13.390625 C 5.597656 -13.929688 6.742188 -14.203125 8.015625 -14.203125 C 9.984375 -14.203125 11.488281 -13.675781 12.53125 -12.625 C 13.582031 -11.582031 14.109375 -10.050781 14.109375 -8.03125 C 14.109375 -7.300781 14.082031 -6.734375 14.03125 -6.328125 Z M 10.765625 -8.4375 C 10.734375 -9.5 10.488281 -10.269531 10.03125 -10.75 C 9.570312 -11.238281 8.898438 -11.484375 8.015625 -11.484375 C 6.242188 -11.484375 5.203125 -10.46875 4.890625 -8.4375 Z M 10.765625 -8.4375 "/></g></g></g><g fill="#17012c" fill-opacity="1"><g transform="translate(103.593274, 28.568983)"><g><path d="M 2.015625 0 L 2.015625 -13.9375 L 5.40625 -13.9375 L 5.40625 -11.859375 L 5.671875 -11.8125 C 6.003906 -12.582031 6.445312 -13.148438 7 -13.515625 C 7.550781 -13.878906 8.21875 -14.0625 9 -14.0625 C 9.789062 -14.0625 10.390625 -13.925781 10.796875 -13.65625 L 10.203125 -10.640625 L 9.9375 -10.59375 C 9.71875 -10.675781 9.5 -10.738281 9.28125 -10.78125 C 9.070312 -10.832031 8.816406 -10.859375 8.515625 -10.859375 C 7.535156 -10.859375 6.789062 -10.515625 6.28125 -9.828125 C 5.769531 -9.140625 5.515625 -8.035156 5.515625 -6.515625 L 5.515625 0 Z M 2.015625 0 "/></g></g></g><g fill="#17012c" fill-opacity="1"><g transform="translate(114.520179, 28.568983)"><g/></g></g><g fill="#17012c" fill-opacity="1"><g transform="translate(120.621559, 28.568983)"><g><path d="M 6.046875 0 L 2.40625 0 L 2.40625 -18.46875 L 6.046875 -18.46875 Z M 6.046875 0 "/></g></g></g><g fill="#17012c" fill-opacity="1"><g transform="translate(129.085173, 28.568983)"><g><path d="M 2.015625 0 L 2.015625 -13.9375 L 5.375 -13.9375 L 5.375 -11.890625 L 5.640625 -11.828125 C 6.503906 -13.410156 7.910156 -14.203125 9.859375 -14.203125 C 11.460938 -14.203125 12.640625 -13.765625 13.390625 -12.890625 C 14.148438 -12.015625 14.53125 -10.738281 14.53125 -9.0625 L 14.53125 0 L 11.03125 0 L 11.03125 -8.625 C 11.03125 -9.550781 10.84375 -10.21875 10.46875 -10.625 C 10.101562 -11.039062 9.507812 -11.25 8.6875 -11.25 C 7.6875 -11.25 6.90625 -10.921875 6.34375 -10.265625 C 5.789062 -9.617188 5.515625 -8.601562 5.515625 -7.21875 L 5.515625 0 Z M 2.015625 0 "/></g></g></g><g fill="#17012c" fill-opacity="1"><g transform="translate(145.406036, 28.568983)"><g/></g></g><g fill="#17012c" fill-opacity="1"><g transform="translate(151.507416, 28.568983)"><g><path d="M 6.46875 0.265625 C 4.90625 0.265625 3.601562 -0.03125 2.5625 -0.625 C 1.53125 -1.21875 0.773438 -2.015625 0.296875 -3.015625 L 2.359375 -5.515625 L 2.671875 -5.515625 C 3.015625 -4.710938 3.492188 -4.078125 4.109375 -3.609375 C 4.734375 -3.140625 5.453125 -2.90625 6.265625 -2.90625 C 7.179688 -2.90625 7.863281 -3.171875 8.3125 -3.703125 C 8.757812 -4.242188 8.984375 -5.113281 8.984375 -6.3125 L 8.984375 -18.46875 L 12.625 -18.46875 L 12.625 -6.25 C 12.625 -4.019531 12.113281 -2.375 11.09375 -1.3125 C 10.082031 -0.257812 8.539062 0.265625 6.46875 0.265625 Z M 6.46875 0.265625 "/></g></g></g><g fill="#17012c" fill-opacity="1"><g transform="translate(166.413482, 28.568983)"><g><path d="M 8.09375 0.265625 C 6.726562 0.265625 5.53125 -0.015625 4.5 -0.578125 C 3.46875 -1.140625 2.664062 -1.957031 2.09375 -3.03125 C 1.53125 -4.113281 1.25 -5.425781 1.25 -6.96875 C 1.25 -8.5 1.53125 -9.804688 2.09375 -10.890625 C 2.664062 -11.972656 3.46875 -12.796875 4.5 -13.359375 C 5.53125 -13.921875 6.726562 -14.203125 8.09375 -14.203125 C 9.457031 -14.203125 10.65625 -13.921875 11.6875 -13.359375 C 12.71875 -12.796875 13.519531 -11.972656 14.09375 -10.890625 C 14.664062 -9.804688 14.953125 -8.5 14.953125 -6.96875 C 14.953125 -5.425781 14.664062 -4.113281 14.09375 -3.03125 C 13.519531 -1.957031 12.71875 -1.140625 11.6875 -0.578125 C 10.65625 -0.015625 9.457031 0.265625 8.09375 0.265625 Z M 8.09375 -2.703125 C 10.257812 -2.703125 11.34375 -4.125 11.34375 -6.96875 C 11.34375 -8.4375 11.0625 -9.515625 10.5 -10.203125 C 9.945312 -10.890625 9.144531 -11.234375 8.09375 -11.234375 C 5.9375 -11.234375 4.859375 -9.8125 4.859375 -6.96875 C 4.859375 -4.125 5.9375 -2.703125 8.09375 -2.703125 Z M 8.09375 -2.703125 "/></g></g></g><g fill="#17012c" fill-opacity="1"><g transform="translate(182.506969, 28.568983)"><g><path d="M 7.234375 5.90625 C 4.929688 5.90625 3.234375 5.566406 2.140625 4.890625 C 1.046875 4.222656 0.5 3.285156 0.5 2.078125 C 0.5 1.347656 0.726562 0.75 1.1875 0.28125 C 1.65625 -0.183594 2.328125 -0.5 3.203125 -0.65625 L 3.203125 -0.921875 C 2.734375 -1.210938 2.394531 -1.53125 2.1875 -1.875 C 1.976562 -2.226562 1.875 -2.632812 1.875 -3.09375 C 1.875 -4.21875 2.601562 -4.972656 4.0625 -5.359375 L 4.0625 -5.625 C 3.3125 -6.050781 2.75 -6.582031 2.375 -7.21875 C 2 -7.851562 1.8125 -8.625 1.8125 -9.53125 C 1.8125 -10.457031 2.019531 -11.269531 2.4375 -11.96875 C 2.863281 -12.675781 3.488281 -13.222656 4.3125 -13.609375 C 5.132812 -14.003906 6.117188 -14.203125 7.265625 -14.203125 C 8.429688 -14.203125 9.359375 -14 10.046875 -13.59375 C 10.472656 -14.21875 10.722656 -14.9375 10.796875 -15.75 L 11.0625 -15.921875 L 13.5625 -15.296875 C 13.488281 -14.628906 13.296875 -14.070312 12.984375 -13.625 C 12.671875 -13.175781 12.1875 -12.773438 11.53125 -12.421875 L 11.53125 -12.140625 C 12.3125 -11.453125 12.703125 -10.488281 12.703125 -9.25 C 12.703125 -8.382812 12.488281 -7.609375 12.0625 -6.921875 C 11.632812 -6.242188 11.007812 -5.707031 10.1875 -5.3125 C 9.363281 -4.914062 8.390625 -4.71875 7.265625 -4.71875 L 6.734375 -4.734375 C 6.398438 -4.753906 6.164062 -4.765625 6.03125 -4.765625 C 5.707031 -4.765625 5.453125 -4.675781 5.265625 -4.5 C 5.085938 -4.332031 5 -4.113281 5 -3.84375 C 5 -3.550781 5.113281 -3.320312 5.34375 -3.15625 C 5.582031 -2.988281 5.929688 -2.894531 6.390625 -2.875 L 9.515625 -2.765625 C 12.597656 -2.671875 14.140625 -1.339844 14.140625 1.21875 C 14.140625 2.113281 13.910156 2.910156 13.453125 3.609375 C 12.992188 4.316406 12.25 4.875 11.21875 5.28125 C 10.1875 5.695312 8.859375 5.90625 7.234375 5.90625 Z M 7.265625 -7.171875 C 7.941406 -7.171875 8.46875 -7.367188 8.84375 -7.765625 C 9.21875 -8.160156 9.40625 -8.726562 9.40625 -9.46875 C 9.40625 -10.195312 9.21875 -10.753906 8.84375 -11.140625 C 8.46875 -11.535156 7.941406 -11.734375 7.265625 -11.734375 C 6.578125 -11.734375 6.046875 -11.535156 5.671875 -11.140625 C 5.304688 -10.753906 5.125 -10.195312 5.125 -9.46875 C 5.125 -8.71875 5.304688 -8.144531 5.671875 -7.75 C 6.046875 -7.363281 6.578125 -7.171875 7.265625 -7.171875 Z M 7.234375 3.375 C 8.421875 3.375 9.285156 3.203125 9.828125 2.859375 C 10.378906 2.523438 10.65625 2.085938 10.65625 1.546875 C 10.65625 1.109375 10.515625 0.785156 10.234375 0.578125 C 9.953125 0.378906 9.507812 0.269531 8.90625 0.25 L 6.15625 0.125 C 6.0625 0.125 5.972656 0.117188 5.890625 0.109375 C 5.816406 0.0976562 5.738281 0.09375 5.65625 0.09375 C 5.070312 0.09375 4.625 0.21875 4.3125 0.46875 C 4.007812 0.726562 3.859375 1.082031 3.859375 1.53125 C 3.859375 2.113281 4.140625 2.566406 4.703125 2.890625 C 5.265625 3.210938 6.109375 3.375 7.234375 3.375 Z M 7.234375 3.375 "/></g></g></g><g fill="#17012c" fill-opacity="1"><g transform="translate(196.996165, 28.568983)"><g><path d="M 7.234375 5.90625 C 4.929688 5.90625 3.234375 5.566406 2.140625 4.890625 C 1.046875 4.222656 0.5 3.285156 0.5 2.078125 C 0.5 1.347656 0.726562 0.75 1.1875 0.28125 C 1.65625 -0.183594 2.328125 -0.5 3.203125 -0.65625 L 3.203125 -0.921875 C 2.734375 -1.210938 2.394531 -1.53125 2.1875 -1.875 C 1.976562 -2.226562 1.875 -2.632812 1.875 -3.09375 C 1.875 -4.21875 2.601562 -4.972656 4.0625 -5.359375 L 4.0625 -5.625 C 3.3125 -6.050781 2.75 -6.582031 2.375 -7.21875 C 2 -7.851562 1.8125 -8.625 1.8125 -9.53125 C 1.8125 -10.457031 2.019531 -11.269531 2.4375 -11.96875 C 2.863281 -12.675781 3.488281 -13.222656 4.3125 -13.609375 C 5.132812 -14.003906 6.117188 -14.203125 7.265625 -14.203125 C 8.429688 -14.203125 9.359375 -14 10.046875 -13.59375 C 10.472656 -14.21875 10.722656 -14.9375 10.796875 -15.75 L 11.0625 -15.921875 L 13.5625 -15.296875 C 13.488281 -14.628906 13.296875 -14.070312 12.984375 -13.625 C 12.671875 -13.175781 12.1875 -12.773438 11.53125 -12.421875 L 11.53125 -12.140625 C 12.3125 -11.453125 12.703125 -10.488281 12.703125 -9.25 C 12.703125 -8.382812 12.488281 -7.609375 12.0625 -6.921875 C 11.632812 -6.242188 11.007812 -5.707031 10.1875 -5.3125 C 9.363281 -4.914062 8.390625 -4.71875 7.265625 -4.71875 L 6.734375 -4.734375 C 6.398438 -4.753906 6.164062 -4.765625 6.03125 -4.765625 C 5.707031 -4.765625 5.453125 -4.675781 5.265625 -4.5 C 5.085938 -4.332031 5 -4.113281 5 -3.84375 C 5 -3.550781 5.113281 -3.320312 5.34375 -3.15625 C 5.582031 -2.988281 5.929688 -2.894531 6.390625 -2.875 L 9.515625 -2.765625 C 12.597656 -2.671875 14.140625 -1.339844 14.140625 1.21875 C 14.140625 2.113281 13.910156 2.910156 13.453125 3.609375 C 12.992188 4.316406 12.25 4.875 11.21875 5.28125 C 10.1875 5.695312 8.859375 5.90625 7.234375 5.90625 Z M 7.265625 -7.171875 C 7.941406 -7.171875 8.46875 -7.367188 8.84375 -7.765625 C 9.21875 -8.160156 9.40625 -8.726562 9.40625 -9.46875 C 9.40625 -10.195312 9.21875 -10.753906 8.84375 -11.140625 C 8.46875 -11.535156 7.941406 -11.734375 7.265625 -11.734375 C 6.578125 -11.734375 6.046875 -11.535156 5.671875 -11.140625 C 5.304688 -10.753906 5.125 -10.195312 5.125 -9.46875 C 5.125 -8.71875 5.304688 -8.144531 5.671875 -7.75 C 6.046875 -7.363281 6.578125 -7.171875 7.265625 -7.171875 Z M 7.234375 3.375 C 8.421875 3.375 9.285156 3.203125 9.828125 2.859375 C 10.378906 2.523438 10.65625 2.085938 10.65625 1.546875 C 10.65625 1.109375 10.515625 0.785156 10.234375 0.578125 C 9.953125 0.378906 9.507812 0.269531 8.90625 0.25 L 6.15625 0.125 C 6.0625 0.125 5.972656 0.117188 5.890625 0.109375 C 5.816406 0.0976562 5.738281 0.09375 5.65625 0.09375 C 5.070312 0.09375 4.625 0.21875 4.3125 0.46875 C 4.007812 0.726562 3.859375 1.082031 3.859375 1.53125 C 3.859375 2.113281 4.140625 2.566406 4.703125 2.890625 C 5.265625 3.210938 6.109375 3.375 7.234375 3.375 Z M 7.234375 3.375 "/></g></g></g><g fill="#17012c" fill-opacity="1"><g transform="translate(211.270607, 28.568983)"><g><path d="M 13.765625 -6.171875 L 4.8125 -6.171875 C 4.914062 -4.960938 5.257812 -4.082031 5.84375 -3.53125 C 6.4375 -2.976562 7.242188 -2.703125 8.265625 -2.703125 C 9.066406 -2.703125 9.710938 -2.847656 10.203125 -3.140625 C 10.703125 -3.441406 11.101562 -3.898438 11.40625 -4.515625 L 11.671875 -4.515625 L 14 -3.015625 C 13.539062 -2.035156 12.851562 -1.242188 11.9375 -0.640625 C 11.019531 -0.0351562 9.796875 0.265625 8.265625 0.265625 C 6.828125 0.265625 5.582031 -0.00390625 4.53125 -0.546875 C 3.476562 -1.097656 2.664062 -1.914062 2.09375 -3 C 1.53125 -4.082031 1.25 -5.40625 1.25 -6.96875 C 1.25 -8.550781 1.546875 -9.882812 2.140625 -10.96875 C 2.742188 -12.050781 3.554688 -12.859375 4.578125 -13.390625 C 5.597656 -13.929688 6.742188 -14.203125 8.015625 -14.203125 C 9.984375 -14.203125 11.488281 -13.675781 12.53125 -12.625 C 13.582031 -11.582031 14.109375 -10.050781 14.109375 -8.03125 C 14.109375 -7.300781 14.082031 -6.734375 14.03125 -6.328125 Z M 10.765625 -8.4375 C 10.734375 -9.5 10.488281 -10.269531 10.03125 -10.75 C 9.570312 -11.238281 8.898438 -11.484375 8.015625 -11.484375 C 6.242188 -11.484375 5.203125 -10.46875 4.890625 -8.4375 Z M 10.765625 -8.4375 "/></g></g></g><g fill="#17012c" fill-opacity="1"><g transform="translate(226.416673, 28.568983)"><g><path d="M 2.015625 0 L 2.015625 -13.9375 L 5.40625 -13.9375 L 5.40625 -11.859375 L 5.671875 -11.8125 C 6.003906 -12.582031 6.445312 -13.148438 7 -13.515625 C 7.550781 -13.878906 8.21875 -14.0625 9 -14.0625 C 9.789062 -14.0625 10.390625 -13.925781 10.796875 -13.65625 L 10.203125 -10.640625 L 9.9375 -10.59375 C 9.71875 -10.675781 9.5 -10.738281 9.28125 -10.78125 C 9.070312 -10.832031 8.816406 -10.859375 8.515625 -10.859375 C 7.535156 -10.859375 6.789062 -10.515625 6.28125 -9.828125 C 5.769531 -9.140625 5.515625 -8.035156 5.515625 -6.515625 L 5.515625 0 Z M 2.015625 0 "/></g></g></g><g fill="#17012c" fill-opacity="1"><g transform="translate(237.343577, 28.568983)"><g><path d="M 6.515625 0.265625 C 5.566406 0.265625 4.695312 0.15625 3.90625 -0.0625 C 3.113281 -0.289062 2.4375 -0.597656 1.875 -0.984375 C 1.3125 -1.378906 0.894531 -1.832031 0.625 -2.34375 L 2.578125 -4.4375 L 2.84375 -4.4375 C 3.300781 -3.8125 3.847656 -3.34375 4.484375 -3.03125 C 5.117188 -2.71875 5.804688 -2.5625 6.546875 -2.5625 C 7.222656 -2.5625 7.734375 -2.679688 8.078125 -2.921875 C 8.429688 -3.171875 8.609375 -3.523438 8.609375 -3.984375 C 8.609375 -4.335938 8.484375 -4.632812 8.234375 -4.875 C 7.984375 -5.113281 7.582031 -5.300781 7.03125 -5.4375 L 5.1875 -5.875 C 3.800781 -6.207031 2.789062 -6.710938 2.15625 -7.390625 C 1.519531 -8.066406 1.203125 -8.925781 1.203125 -9.96875 C 1.203125 -10.832031 1.421875 -11.582031 1.859375 -12.21875 C 2.304688 -12.863281 2.929688 -13.351562 3.734375 -13.6875 C 4.535156 -14.03125 5.472656 -14.203125 6.546875 -14.203125 C 7.796875 -14.203125 8.832031 -14.019531 9.65625 -13.65625 C 10.488281 -13.289062 11.132812 -12.804688 11.59375 -12.203125 L 9.734375 -10.1875 L 9.46875 -10.1875 C 9.082031 -10.625 8.644531 -10.941406 8.15625 -11.140625 C 7.675781 -11.347656 7.140625 -11.453125 6.546875 -11.453125 C 5.160156 -11.453125 4.46875 -11.019531 4.46875 -10.15625 C 4.46875 -9.789062 4.597656 -9.492188 4.859375 -9.265625 C 5.117188 -9.046875 5.570312 -8.863281 6.21875 -8.71875 L 7.9375 -8.34375 C 9.351562 -8.039062 10.382812 -7.550781 11.03125 -6.875 C 11.6875 -6.207031 12.015625 -5.3125 12.015625 -4.1875 C 12.015625 -3.300781 11.796875 -2.519531 11.359375 -1.84375 C 10.921875 -1.164062 10.285156 -0.644531 9.453125 -0.28125 C 8.628906 0.0820312 7.648438 0.265625 6.515625 0.265625 Z M 6.515625 0.265625 "/></g></g></g></g></g></g></svg>